<?xml version="1.0" encoding="iso-8859-1"?>
<!-- Generator: Adobe Illustrator 25.4.1, SVG Export Plug-In . SVG Version: 6.00 Build 0)  -->
<!DOCTYPE svg PUBLIC "-//W3C//DTD SVG 1.1//EN" "http://www.w3.org/Graphics/SVG/1.1/DTD/svg11.dtd" [
	<!ENTITY ns_extend "http://ns.adobe.com/Extensibility/1.0/">
	<!ENTITY ns_ai "http://ns.adobe.com/AdobeIllustrator/10.0/">
	<!ENTITY ns_graphs "http://ns.adobe.com/Graphs/1.0/">
	<!ENTITY ns_vars "http://ns.adobe.com/Variables/1.0/">
	<!ENTITY ns_imrep "http://ns.adobe.com/ImageReplacement/1.0/">
	<!ENTITY ns_sfw "http://ns.adobe.com/SaveForWeb/1.0/">
	<!ENTITY ns_custom "http://ns.adobe.com/GenericCustomNamespace/1.0/">
	<!ENTITY ns_adobe_xpath "http://ns.adobe.com/XPath/1.0/">
]>
<svg version="1.1" id="Layer_1" xmlns:x="&ns_extend;" xmlns:i="&ns_ai;" xmlns:graph="&ns_graphs;"
	 xmlns="http://www.w3.org/2000/svg" xmlns:xlink="http://www.w3.org/1999/xlink" x="0px" y="0px" width="42.7px" height="33.2px"
	 viewBox="0 0 42.7 33.2" style="enable-background:new 0 0 42.7 33.2;" xml:space="preserve">
<metadata>
	<sfw  xmlns="&ns_sfw;">
		<slices></slices>
		<sliceSourceBounds  bottomLeftOrigin="true" height="432.1" width="433.2" x="-54.5" y="-398.8"></sliceSourceBounds>
	</sfw>
</metadata>
<g>
	<path style="fill:#FFFFFF;" d="M42.7,12c0,6.6-6.1,13.7-13.8,17.8c-4.6,2.4-9.2,3.5-13.6,3.5c-4.8,0-8.8-1.5-12-4.5
		c-2.1-2-3.4-4.6-3.4-7.6C0,14.6,5.7,7.4,13.3,3.7C18.1,1.2,22.8,0,27.1,0c4.6,0,8.5,1.5,11.7,4.2C41.4,6.4,42.7,8.9,42.7,12z"/>
</g>
<path style="fill:#010202;" d="M42.7,12c0,6.6-6.1,13.7-13.8,17.8c-4.6,2.4-9.2,3.5-13.5,3.5c-4.8,0-8.8-1.5-12.1-4.5
	c-2.1-2-3.4-4.6-3.4-7.6C0,14.6,5.7,7.4,13.3,3.7C18.1,1.2,22.8,0,27.1,0c4.6,0,8.5,1.5,11.7,4.2C41.4,6.4,42.7,8.9,42.7,12z
	 M38.4,9.5c0-2-0.5-3.5-1.2-4.6C36.2,3.7,34,3,30.6,3c-5.1,0-10.2,1.4-15.3,4.2c-3.7,2.1-6.6,4.8-8.8,8.2c-1.9,3-2.7,5.7-2.7,8.3
	c0,4.2,3.6,6.3,10.8,6.3c5,0,9.4-1.4,13.7-3.7c3.5-2,6-4.7,7.8-8.1C37.6,15.4,38.4,12.5,38.4,9.5z"/>
<g style="enable-background:new    ;">
	<path d="M10.7,9.8V7.5h12.2v1.8c-1.2,1.3-2.4,3-3.6,5.1s-2.1,4.3-2.7,6.6c-0.5,1.6-0.8,3.3-0.9,5.2h-2.4c0-1.5,0.3-3.3,0.9-5.4
		c0.6-2.1,1.4-4.1,2.4-6.1s2.2-3.6,3.3-4.9H10.7z"/>
</g>
<g>
	<path d="M23.9,6.6h1.2l-0.2,10.1c1.4-1.6,1.7-1.8,3-1.8c2.1,0,3.6,1.5,3.6,3.7c0,3.1-3.2,4.5-5.6,6.5l-2,1.6V6.6z M25.2,18.1
		c-0.1,2.1-0.2,3.4-0.2,3.9c0,1,0.1,1.8,0.3,2.4c2.7-2.1,4-4.1,4-5.8c0-1.4-0.8-2.5-2.1-2.5C26.2,16.2,25.7,17.3,25.2,18.1z"/>
</g>
</svg>
