<?xml version="1.0" encoding="iso-8859-1"?>
<!-- Generator: Adobe Illustrator 25.4.1, SVG Export Plug-In . SVG Version: 6.00 Build 0)  -->
<!DOCTYPE svg PUBLIC "-//W3C//DTD SVG 1.1//EN" "http://www.w3.org/Graphics/SVG/1.1/DTD/svg11.dtd" [
	<!ENTITY ns_extend "http://ns.adobe.com/Extensibility/1.0/">
	<!ENTITY ns_ai "http://ns.adobe.com/AdobeIllustrator/10.0/">
	<!ENTITY ns_graphs "http://ns.adobe.com/Graphs/1.0/">
	<!ENTITY ns_vars "http://ns.adobe.com/Variables/1.0/">
	<!ENTITY ns_imrep "http://ns.adobe.com/ImageReplacement/1.0/">
	<!ENTITY ns_sfw "http://ns.adobe.com/SaveForWeb/1.0/">
	<!ENTITY ns_custom "http://ns.adobe.com/GenericCustomNamespace/1.0/">
	<!ENTITY ns_adobe_xpath "http://ns.adobe.com/XPath/1.0/">
]>
<svg version="1.1" id="Layer_1" xmlns:x="&ns_extend;" xmlns:i="&ns_ai;" xmlns:graph="&ns_graphs;"
	 xmlns="http://www.w3.org/2000/svg" xmlns:xlink="http://www.w3.org/1999/xlink" x="0px" y="0px" width="43.5px" height="33.2px"
	 viewBox="0 0 43.5 33.2" style="enable-background:new 0 0 43.5 33.2;" xml:space="preserve">
<metadata>
	<sfw  xmlns="&ns_sfw;">
		<slices></slices>
		<sliceSourceBounds  bottomLeftOrigin="true" height="432.1" width="433.2" x="-54.5" y="-398.8"></sliceSourceBounds>
	</sfw>
</metadata>
<path style="fill:#FFFFFF;" d="M29.1,0.1C16.2,0.1,0,10.8,0,22.2c0,7,6.2,11.1,14.3,11.1c13,0,29.2-10.9,29.2-22.1
	C43.5,4.4,37.5,0.1,29.1,0.1z"/>
<g>
	<path style="fill:#010202;" d="M43.5,11c0,11.2-16.2,22.1-29.2,22.1C6.2,33.1,0,29,0,22.1C0,10.6,16.2-0.1,29.1-0.1
		C37.5-0.1,43.5,4.3,43.5,11z"/>
</g>
<g style="enable-background:new    ;">
	<path style="fill:#FFFFFF;" d="M14.7,7.6V5.1h13.8v2c-1.4,1.4-2.7,3.4-4,5.8c-1.3,2.4-2.4,4.9-3.1,7.4c-0.5,1.8-0.9,3.7-1,5.9h-2.7
		c0-1.7,0.4-3.7,1-6.1c0.6-2.4,1.5-4.7,2.7-6.9c1.2-2.2,2.4-4.1,3.8-5.6H14.7z"/>
</g>
</svg>
