<?xml version="1.0" encoding="iso-8859-1"?>
<!-- Generator: Adobe Illustrator 25.4.1, SVG Export Plug-In . SVG Version: 6.00 Build 0)  -->
<!DOCTYPE svg PUBLIC "-//W3C//DTD SVG 1.1//EN" "http://www.w3.org/Graphics/SVG/1.1/DTD/svg11.dtd" [
	<!ENTITY ns_extend "http://ns.adobe.com/Extensibility/1.0/">
	<!ENTITY ns_ai "http://ns.adobe.com/AdobeIllustrator/10.0/">
	<!ENTITY ns_graphs "http://ns.adobe.com/Graphs/1.0/">
	<!ENTITY ns_vars "http://ns.adobe.com/Variables/1.0/">
	<!ENTITY ns_imrep "http://ns.adobe.com/ImageReplacement/1.0/">
	<!ENTITY ns_sfw "http://ns.adobe.com/SaveForWeb/1.0/">
	<!ENTITY ns_custom "http://ns.adobe.com/GenericCustomNamespace/1.0/">
	<!ENTITY ns_adobe_xpath "http://ns.adobe.com/XPath/1.0/">
]>
<svg version="1.1" id="Layer_1" xmlns:x="&ns_extend;" xmlns:i="&ns_ai;" xmlns:graph="&ns_graphs;"
	 xmlns="http://www.w3.org/2000/svg" xmlns:xlink="http://www.w3.org/1999/xlink" x="0px" y="0px" width="43.5px" height="33.2px"
	 viewBox="0 0 43.5 33.2" style="enable-background:new 0 0 43.5 33.2;" xml:space="preserve">
<metadata>
	<sfw  xmlns="&ns_sfw;">
		<slices></slices>
		<sliceSourceBounds  bottomLeftOrigin="true" height="432.1" width="433.2" x="-54.5" y="-398.8"></sliceSourceBounds>
	</sfw>
</metadata>
<path style="fill:#FFFFFF;" d="M29.1,0.1C16.2,0.1,0,10.8,0,22.2c0,7,6.2,11.1,14.3,11.1c13,0,29.2-10.9,29.2-22.1
	C43.5,4.4,37.5,0.1,29.1,0.1z"/>
<g>
	<path style="fill:#010202;" d="M43.5,11c0,11.2-16.2,22.1-29.2,22.1C6.2,33.1,0,29,0,22.1C0,10.6,16.2-0.1,29.1-0.1
		C37.5-0.1,43.5,4.3,43.5,11z"/>
</g>
<g style="enable-background:new    ;">
	<path style="fill:#FFFFFF;" d="M9.5,21.5l2.8-0.2c0.2,1.3,0.7,2.3,1.4,3s1.6,1,2.7,1c1.3,0,2.3-0.5,3.2-1.4c0.9-1,1.3-2.2,1.3-3.8
		c0-1.5-0.4-2.7-1.3-3.5c-0.8-0.9-1.9-1.3-3.3-1.3c-0.8,0-1.6,0.2-2.3,0.6c-0.7,0.4-1.2,0.9-1.6,1.5L10,17L12,6h10.6v2.5h-8.5
		L13,14.3c1.3-0.9,2.6-1.3,4-1.3c1.9,0,3.4,0.6,4.7,1.9c1.3,1.3,1.9,3,1.9,5c0,1.9-0.6,3.6-1.7,5c-1.4,1.7-3.2,2.6-5.6,2.6
		c-1.9,0-3.5-0.5-4.8-1.6C10.4,24.7,9.7,23.3,9.5,21.5z"/>
</g>
<g>
	<path style="fill:#FFFFFF;" d="M33.3,2.5v4.8l2-0.6v3.1l-2,0.6v5.9l2-0.6v3.1l-2,0.6v5.3h-0.8v-5.1l-3.2,1.1v5.1h-0.8v-4.8
		l-1.9,0.6v-3.1l1.9-0.6V12l-1.9,0.6V9.5l1.9-0.6V3.5h0.8v5.1l3.2-1.1V2.5H33.3z M32.4,10.8l-3.2,1.1v5.9l3.2-1.1V10.8z"/>
</g>
</svg>
