<?xml version="1.0" encoding="iso-8859-1"?>
<!-- Generator: Adobe Illustrator 25.4.1, SVG Export Plug-In . SVG Version: 6.00 Build 0)  -->
<!DOCTYPE svg PUBLIC "-//W3C//DTD SVG 1.1//EN" "http://www.w3.org/Graphics/SVG/1.1/DTD/svg11.dtd" [
	<!ENTITY ns_extend "http://ns.adobe.com/Extensibility/1.0/">
	<!ENTITY ns_ai "http://ns.adobe.com/AdobeIllustrator/10.0/">
	<!ENTITY ns_graphs "http://ns.adobe.com/Graphs/1.0/">
	<!ENTITY ns_vars "http://ns.adobe.com/Variables/1.0/">
	<!ENTITY ns_imrep "http://ns.adobe.com/ImageReplacement/1.0/">
	<!ENTITY ns_sfw "http://ns.adobe.com/SaveForWeb/1.0/">
	<!ENTITY ns_custom "http://ns.adobe.com/GenericCustomNamespace/1.0/">
	<!ENTITY ns_adobe_xpath "http://ns.adobe.com/XPath/1.0/">
]>
<svg version="1.1" id="Layer_1" xmlns:x="&ns_extend;" xmlns:i="&ns_ai;" xmlns:graph="&ns_graphs;"
	 xmlns="http://www.w3.org/2000/svg" xmlns:xlink="http://www.w3.org/1999/xlink" x="0px" y="0px" width="43.5px" height="33.2px"
	 viewBox="0 0 43.5 33.2" style="enable-background:new 0 0 43.5 33.2;" xml:space="preserve">
<metadata>
	<sfw  xmlns="&ns_sfw;">
		<slices></slices>
		<sliceSourceBounds  bottomLeftOrigin="true" height="432.1" width="433.2" x="-54.5" y="-398.8"></sliceSourceBounds>
	</sfw>
</metadata>
<path style="fill:#FFFFFF;" d="M29.1,0.2C16.2,0.2,0,10.9,0,22.3c0,7,6.2,11.1,14.3,11.1c13,0,29.2-10.9,29.2-22.1
	C43.5,4.5,37.5,0.2,29.1,0.2z"/>
<g>
	<path style="fill:#010202;" d="M43.5,11.1c0,11.2-16.2,22.1-29.2,22.1C6.2,33.2,0,29.1,0,22.2C0,10.7,16.2,0,29.1,0
		C37.5,0,43.5,4.4,43.5,11.1z"/>
</g>
<g style="enable-background:new    ;">
	<path style="fill:#FFFFFF;" d="M23.3,24.6v2.5H9.2c0-0.6,0.1-1.2,0.3-1.8c0.4-1,0.9-1.9,1.7-2.8c0.8-0.9,1.9-2,3.4-3.2
		c2.3-1.9,3.9-3.4,4.7-4.5c0.8-1.1,1.2-2.2,1.2-3.2c0-1-0.4-1.9-1.1-2.6s-1.7-1.1-2.9-1.1c-1.3,0-2.3,0.4-3,1.1s-1.1,1.8-1.1,3.1
		l-2.7-0.3c0.2-2,0.9-3.5,2.1-4.6s2.8-1.6,4.8-1.6c2,0,3.7,0.6,4.9,1.7c1.2,1.1,1.8,2.5,1.8,4.2c0,0.9-0.2,1.7-0.5,2.5
		c-0.3,0.8-0.9,1.7-1.7,2.6c-0.8,0.9-2.2,2.2-4,3.8c-1.6,1.3-2.6,2.2-3,2.7c-0.4,0.5-0.8,0.9-1.1,1.4H23.3z"/>
</g>
<g>
	<path style="fill:#FFFFFF;" d="M26.3,5.6h1.2l-0.2,10.1c1.4-1.6,1.7-1.7,3-1.7c2.1,0,3.5,1.5,3.5,3.6c0,3.1-3.2,4.5-5.6,6.5l-2,1.6
		V5.6z M27.6,17.2c-0.1,2.1-0.2,3.4-0.2,3.9c0,1,0.1,1.8,0.3,2.4c2.7-2.1,4-4.1,4-5.8c0-1.4-0.8-2.5-2.1-2.5
		C28.6,15.2,28.1,16.3,27.6,17.2z"/>
</g>
</svg>
