<?xml version="1.0" encoding="iso-8859-1"?>
<!-- Generator: Adobe Illustrator 25.4.1, SVG Export Plug-In . SVG Version: 6.00 Build 0)  -->
<!DOCTYPE svg PUBLIC "-//W3C//DTD SVG 1.1//EN" "http://www.w3.org/Graphics/SVG/1.1/DTD/svg11.dtd" [
	<!ENTITY ns_extend "http://ns.adobe.com/Extensibility/1.0/">
	<!ENTITY ns_ai "http://ns.adobe.com/AdobeIllustrator/10.0/">
	<!ENTITY ns_graphs "http://ns.adobe.com/Graphs/1.0/">
	<!ENTITY ns_vars "http://ns.adobe.com/Variables/1.0/">
	<!ENTITY ns_imrep "http://ns.adobe.com/ImageReplacement/1.0/">
	<!ENTITY ns_sfw "http://ns.adobe.com/SaveForWeb/1.0/">
	<!ENTITY ns_custom "http://ns.adobe.com/GenericCustomNamespace/1.0/">
	<!ENTITY ns_adobe_xpath "http://ns.adobe.com/XPath/1.0/">
]>
<svg version="1.1" id="Layer_1" xmlns:x="&ns_extend;" xmlns:i="&ns_ai;" xmlns:graph="&ns_graphs;"
	 xmlns="http://www.w3.org/2000/svg" xmlns:xlink="http://www.w3.org/1999/xlink" x="0px" y="0px" width="43.5px" height="33.2px"
	 viewBox="0 0 43.5 33.2" style="enable-background:new 0 0 43.5 33.2;" xml:space="preserve">
<metadata>
	<sfw  xmlns="&ns_sfw;">
		<slices></slices>
		<sliceSourceBounds  bottomLeftOrigin="true" height="432.1" width="433.2" x="-54.5" y="-398.8"></sliceSourceBounds>
	</sfw>
</metadata>
<path style="fill:#FFFFFF;" d="M29.1,0.1C16.2,0.1,0,10.8,0,22.2c0,7,6.2,11.1,14.3,11.1c13,0,29.2-10.9,29.2-22.1
	C43.5,4.4,37.5,0.1,29.1,0.1z"/>
<g>
	<path style="fill:#010202;" d="M43.5,11c0,11.2-16.2,22.1-29.2,22.1C6.2,33.1,0,29,0,22.1C0,10.6,16.2-0.1,29.1-0.1
		C37.5-0.1,43.5,4.3,43.5,11z"/>
</g>
<g style="enable-background:new    ;">
	<path style="fill:#FFFFFF;" d="M9.5,21.4l2.6-0.3c0.3,1.5,0.8,2.6,1.5,3.2c0.7,0.7,1.6,1,2.6,1c1.2,0,2.3-0.4,3.1-1.3
		c0.8-0.9,1.3-1.9,1.3-3.2c0-1.2-0.4-2.2-1.2-3c-0.8-0.8-1.8-1.2-3-1.2c-0.5,0-1.1,0.1-1.8,0.3l0.3-2.3c0.2,0,0.3,0,0.4,0
		c1.1,0,2.1-0.3,3-0.9s1.3-1.5,1.3-2.7c0-1-0.3-1.8-1-2.4c-0.7-0.6-1.5-0.9-2.5-0.9c-1,0-1.9,0.3-2.5,1c-0.7,0.6-1.1,1.6-1.3,2.9
		l-2.6-0.5c0.3-1.8,1-3.1,2.2-4.1c1.1-1,2.5-1.4,4.2-1.4c1.2,0,2.2,0.2,3.2,0.8c1,0.5,1.7,1.2,2.2,2c0.5,0.9,0.8,1.8,0.8,2.8
		c0,0.9-0.2,1.8-0.7,2.5c-0.5,0.8-1.2,1.4-2.2,1.8c1.3,0.3,2.2,0.9,2.9,1.8c0.7,0.9,1,2.1,1,3.4c0,1.9-0.7,3.4-2,4.7
		c-1.4,1.3-3.1,1.9-5.2,1.9c-1.9,0-3.4-0.6-4.7-1.7C10.4,24.7,9.7,23.2,9.5,21.4z"/>
</g>
<g>
	<path style="fill:#FFFFFF;" d="M33.3,2.5v4.8l2-0.6v3.1l-2,0.6v5.9l2-0.6v3.1l-2,0.6v5.3h-0.8v-5.1l-3.2,1.1v5.1h-0.8v-4.8
		l-1.9,0.6v-3.1l1.9-0.6V12l-1.9,0.6V9.5l1.9-0.6V3.5h0.8v5.1l3.2-1.1V2.5H33.3z M32.4,10.8l-3.2,1.1v5.9l3.2-1.1V10.8z"/>
</g>
</svg>
