<?xml version="1.0" encoding="iso-8859-1"?>
<!-- Generator: Adobe Illustrator 25.4.1, SVG Export Plug-In . SVG Version: 6.00 Build 0)  -->
<!DOCTYPE svg PUBLIC "-//W3C//DTD SVG 1.1//EN" "http://www.w3.org/Graphics/SVG/1.1/DTD/svg11.dtd" [
	<!ENTITY ns_extend "http://ns.adobe.com/Extensibility/1.0/">
	<!ENTITY ns_ai "http://ns.adobe.com/AdobeIllustrator/10.0/">
	<!ENTITY ns_graphs "http://ns.adobe.com/Graphs/1.0/">
	<!ENTITY ns_vars "http://ns.adobe.com/Variables/1.0/">
	<!ENTITY ns_imrep "http://ns.adobe.com/ImageReplacement/1.0/">
	<!ENTITY ns_sfw "http://ns.adobe.com/SaveForWeb/1.0/">
	<!ENTITY ns_custom "http://ns.adobe.com/GenericCustomNamespace/1.0/">
	<!ENTITY ns_adobe_xpath "http://ns.adobe.com/XPath/1.0/">
]>
<svg version="1.1" id="Layer_1" xmlns:x="&ns_extend;" xmlns:i="&ns_ai;" xmlns:graph="&ns_graphs;"
	 xmlns="http://www.w3.org/2000/svg" xmlns:xlink="http://www.w3.org/1999/xlink" x="0px" y="0px" width="43.5px" height="33.2px"
	 viewBox="0 0 43.5 33.2" style="enable-background:new 0 0 43.5 33.2;" xml:space="preserve">
<metadata>
	<sfw  xmlns="&ns_sfw;">
		<slices></slices>
		<sliceSourceBounds  bottomLeftOrigin="true" height="432.1" width="433.2" x="-54.5" y="-398.8"></sliceSourceBounds>
	</sfw>
</metadata>
<path style="fill:#FFFFFF;" d="M29.1,0.1C16.2,0.1,0,10.8,0,22.2c0,7,6.2,11.1,14.3,11.1c13,0,29.2-10.9,29.2-22.1
	C43.5,4.4,37.5,0.1,29.1,0.1z"/>
<g>
	<path style="fill:#010202;" d="M43.5,11c0,11.2-16.2,22.1-29.2,22.1C6.2,33.1,0,29,0,22.1C0,10.6,16.2-0.1,29.1-0.1
		C37.5-0.1,43.5,4.3,43.5,11z"/>
</g>
<g style="enable-background:new    ;">
	<path style="fill:#FFFFFF;" d="M17.9,27.1V22H8.6v-2.4l9.7-13.8h2.1v13.8h2.9V22h-2.9v5.1H17.9z M17.9,19.6V9.9l-6.7,9.6H17.9z"/>
</g>
<g>
	<path style="fill:#FFFFFF;" d="M26.3,5.5h1.2l-0.2,10.1c1.4-1.6,1.7-1.7,3-1.7c2.1,0,3.5,1.5,3.5,3.6c0,3.1-3.2,4.5-5.6,6.5l-2,1.6
		V5.5z M27.6,17.1c-0.1,2.1-0.2,3.4-0.2,3.9c0,1,0.1,1.8,0.3,2.4c2.7-2.1,4-4.1,4-5.8c0-1.4-0.8-2.5-2.1-2.5
		C28.6,15.1,28.1,16.2,27.6,17.1z"/>
</g>
</svg>
