<?xml version="1.0" encoding="iso-8859-1"?>
<!-- Generator: Adobe Illustrator 25.4.1, SVG Export Plug-In . SVG Version: 6.00 Build 0)  -->
<!DOCTYPE svg PUBLIC "-//W3C//DTD SVG 1.1//EN" "http://www.w3.org/Graphics/SVG/1.1/DTD/svg11.dtd" [
	<!ENTITY ns_extend "http://ns.adobe.com/Extensibility/1.0/">
	<!ENTITY ns_ai "http://ns.adobe.com/AdobeIllustrator/10.0/">
	<!ENTITY ns_graphs "http://ns.adobe.com/Graphs/1.0/">
	<!ENTITY ns_vars "http://ns.adobe.com/Variables/1.0/">
	<!ENTITY ns_imrep "http://ns.adobe.com/ImageReplacement/1.0/">
	<!ENTITY ns_sfw "http://ns.adobe.com/SaveForWeb/1.0/">
	<!ENTITY ns_custom "http://ns.adobe.com/GenericCustomNamespace/1.0/">
	<!ENTITY ns_adobe_xpath "http://ns.adobe.com/XPath/1.0/">
]>
<svg version="1.1" id="Layer_1" xmlns:x="&ns_extend;" xmlns:i="&ns_ai;" xmlns:graph="&ns_graphs;"
	 xmlns="http://www.w3.org/2000/svg" xmlns:xlink="http://www.w3.org/1999/xlink" x="0px" y="0px" width="43.5px" height="33.2px"
	 viewBox="0 0 43.5 33.2" style="enable-background:new 0 0 43.5 33.2;" xml:space="preserve">
<metadata>
	<sfw  xmlns="&ns_sfw;">
		<slices></slices>
		<sliceSourceBounds  bottomLeftOrigin="true" height="432.1" width="433.2" x="-54.5" y="-398.8"></sliceSourceBounds>
	</sfw>
</metadata>
<path style="fill:#FFFFFF;" d="M29.1,0.1C16.2,0.1,0,10.8,0,22.2c0,7,6.2,11.1,14.3,11.1c13,0,29.2-10.9,29.2-22.1
	C43.5,4.4,37.5,0.1,29.1,0.1z"/>
<g>
	<path style="fill:#010202;" d="M43.5,11c0,11.2-16.2,22.1-29.2,22.1C6.2,33.1,0,29,0,22.1C0,10.6,16.2-0.1,29.1-0.1
		C37.5-0.1,43.5,4.3,43.5,11z"/>
</g>
<g style="enable-background:new    ;">
	<path style="fill:#FFFFFF;" d="M28.2,10.1l-2.6,0.2c-0.2-1-0.6-1.8-1-2.2c-0.7-0.7-1.6-1.1-2.6-1.1c-0.8,0-1.6,0.2-2.2,0.7
		c-0.8,0.6-1.5,1.5-2,2.6s-0.7,2.8-0.7,4.9c0.6-1,1.4-1.7,2.3-2.1c0.9-0.5,1.9-0.7,2.9-0.7c1.7,0,3.2,0.6,4.5,1.9s1.8,2.9,1.8,5
		c0,1.3-0.3,2.6-0.9,3.7c-0.6,1.1-1.4,2-2.4,2.6s-2.2,0.9-3.4,0.9c-2.2,0-4-0.8-5.3-2.4c-1.4-1.6-2.1-4.3-2.1-7.9
		c0-4.1,0.8-7.1,2.3-9c1.3-1.6,3.1-2.4,5.4-2.4c1.7,0,3.1,0.5,4.1,1.4S27.9,8.4,28.2,10.1z M17.5,19.3c0,0.9,0.2,1.8,0.6,2.6
		c0.4,0.8,0.9,1.5,1.6,1.9s1.4,0.6,2.2,0.6c1.1,0,2.1-0.4,2.9-1.3c0.8-0.9,1.2-2.1,1.2-3.6c0-1.5-0.4-2.6-1.2-3.5
		c-0.8-0.8-1.8-1.3-3-1.3c-1.2,0-2.2,0.4-3,1.3C17.9,16.8,17.5,17.9,17.5,19.3z"/>
</g>
</svg>
