<?xml version="1.0" encoding="iso-8859-1"?>
<!-- Generator: Adobe Illustrator 25.4.1, SVG Export Plug-In . SVG Version: 6.00 Build 0)  -->
<!DOCTYPE svg PUBLIC "-//W3C//DTD SVG 1.1//EN" "http://www.w3.org/Graphics/SVG/1.1/DTD/svg11.dtd" [
	<!ENTITY ns_extend "http://ns.adobe.com/Extensibility/1.0/">
	<!ENTITY ns_ai "http://ns.adobe.com/AdobeIllustrator/10.0/">
	<!ENTITY ns_graphs "http://ns.adobe.com/Graphs/1.0/">
	<!ENTITY ns_vars "http://ns.adobe.com/Variables/1.0/">
	<!ENTITY ns_imrep "http://ns.adobe.com/ImageReplacement/1.0/">
	<!ENTITY ns_sfw "http://ns.adobe.com/SaveForWeb/1.0/">
	<!ENTITY ns_custom "http://ns.adobe.com/GenericCustomNamespace/1.0/">
	<!ENTITY ns_adobe_xpath "http://ns.adobe.com/XPath/1.0/">
]>
<svg version="1.1" id="Layer_1" xmlns:x="&ns_extend;" xmlns:i="&ns_ai;" xmlns:graph="&ns_graphs;"
	 xmlns="http://www.w3.org/2000/svg" xmlns:xlink="http://www.w3.org/1999/xlink" x="0px" y="0px" width="43.5px" height="33.2px"
	 viewBox="0 0 43.5 33.2" style="enable-background:new 0 0 43.5 33.2;" xml:space="preserve">
<metadata>
	<sfw  xmlns="&ns_sfw;">
		<slices></slices>
		<sliceSourceBounds  bottomLeftOrigin="true" height="432.1" width="433.2" x="-54.5" y="-398.8"></sliceSourceBounds>
	</sfw>
</metadata>
<path style="fill:#FFFFFF;" d="M29.1,0.1C16.2,0.1,0,10.8,0,22.2c0,7,6.2,11.1,14.3,11.1c13,0,29.2-10.9,29.2-22.1
	C43.5,4.4,37.5,0.1,29.1,0.1z"/>
<g>
	<path style="fill:#010202;" d="M43.5,11c0,11.2-16.2,22.1-29.2,22.1C6.2,33.1,0,29,0,22.1C0,10.6,16.2-0.1,29.1-0.1
		C37.5-0.1,43.5,4.3,43.5,11z"/>
</g>
<g style="enable-background:new    ;">
	<path style="fill:#FFFFFF;" d="M19.4,27.1h-2.6V10.4c-0.6,0.6-1.5,1.2-2.5,1.8c-1,0.6-1.9,1.1-2.8,1.4V11c1.5-0.7,2.7-1.5,3.8-2.5
		c1.1-1,1.9-1.9,2.3-2.9h1.7V27.1z"/>
</g>
<g>
	<path style="fill:#FFFFFF;" d="M33.3,2.5v4.8l2-0.6v3.1l-2,0.6v5.9l2-0.6v3.1l-2,0.6v5.3h-0.8v-5.1l-3.2,1.1v5.1h-0.8v-4.8
		l-1.9,0.6v-3.1l1.9-0.6V12l-1.9,0.6V9.5l1.9-0.6V3.5h0.8v5.1l3.2-1.1V2.5H33.3z M32.4,10.8l-3.2,1.1v5.9l3.2-1.1V10.8z"/>
</g>
</svg>
