<svg id="Layer_1" data-name="Layer 1" xmlns="http://www.w3.org/2000/svg" width="43.5" height="33.2" viewBox="0 0 43.5 33.2"><path d="M29.1.1C16.2.1,0,10.8,0,22.2c0,7,6.2,11.1,14.3,11.1,13,0,29.2-10.9,29.2-22.1C43.5,4.4,37.5.1,29.1.1Z" style="fill:#fff"/><path d="M43.5,11c0,11.2-16.2,22.1-29.2,22.1C6.2,33.1,0,29,0,22.1,0,10.6,16.2-.1,29.1-.1,37.5-.1,43.5,4.3,43.5,11Z" style="fill:#010202"/><g style="isolation:isolate"><path d="M28.3,23.7v2.5H14.2a4.8,4.8,0,0,1,.3-1.8,11.5,11.5,0,0,1,1.8-2.9,27.5,27.5,0,0,1,3.4-3.2,29.7,29.7,0,0,0,4.7-4.5,5.6,5.6,0,0,0,1.2-3.2A3.6,3.6,0,0,0,24.5,8a4,4,0,0,0-2.9-1.1,3.8,3.8,0,0,0-3,1.2,4,4,0,0,0-1.2,3.1l-2.7-.3a6.9,6.9,0,0,1,2.1-4.6,7.4,7.4,0,0,1,4.9-1.5,6.4,6.4,0,0,1,4.8,1.7,5.4,5.4,0,0,1,1.8,4.2,7.4,7.4,0,0,1-.5,2.5A9.4,9.4,0,0,1,26,15.8a39.4,39.4,0,0,1-4,3.8l-3,2.6a7.2,7.2,0,0,0-1.1,1.5Z" style="fill:#fff"/></g></svg>