<?xml version="1.0" encoding="iso-8859-1"?>
<!-- Generator: Adobe Illustrator 25.4.1, SVG Export Plug-In . SVG Version: 6.00 Build 0)  -->
<!DOCTYPE svg PUBLIC "-//W3C//DTD SVG 1.1//EN" "http://www.w3.org/Graphics/SVG/1.1/DTD/svg11.dtd" [
	<!ENTITY ns_extend "http://ns.adobe.com/Extensibility/1.0/">
	<!ENTITY ns_ai "http://ns.adobe.com/AdobeIllustrator/10.0/">
	<!ENTITY ns_graphs "http://ns.adobe.com/Graphs/1.0/">
	<!ENTITY ns_vars "http://ns.adobe.com/Variables/1.0/">
	<!ENTITY ns_imrep "http://ns.adobe.com/ImageReplacement/1.0/">
	<!ENTITY ns_sfw "http://ns.adobe.com/SaveForWeb/1.0/">
	<!ENTITY ns_custom "http://ns.adobe.com/GenericCustomNamespace/1.0/">
	<!ENTITY ns_adobe_xpath "http://ns.adobe.com/XPath/1.0/">
]>
<svg version="1.1" id="Layer_1" xmlns:x="&ns_extend;" xmlns:i="&ns_ai;" xmlns:graph="&ns_graphs;"
	 xmlns="http://www.w3.org/2000/svg" xmlns:xlink="http://www.w3.org/1999/xlink" x="0px" y="0px" width="57px" height="34.8px"
	 viewBox="0 0 57 34.8" style="enable-background:new 0 0 57 34.8;" xml:space="preserve">
<metadata>
	<sfw  xmlns="&ns_sfw;">
		<slices></slices>
		<sliceSourceBounds  bottomLeftOrigin="true" height="432.1" width="433.2" x="-54.5" y="-398.8"></sliceSourceBounds>
	</sfw>
</metadata>
<path style="fill:#FFFFFF;" d="M57.4,17.3C57.4,27.6,45.6,34,27.9,34c-15.8,0-28-6.5-28-16.7C0,7.3,14.4,0.7,29.3,0.7
	C43,0.7,57.4,7.8,57.4,17.3z"/>
<g>
	<path style="fill:#010202;" d="M57.4,17.2c0,10.4-11.8,16.7-29.5,16.7C12.2,33.9,0,27.6,0,17.2C0,7.3,14.4,0.6,29.3,0.6
		C43,0.6,57.4,7.8,57.4,17.2z M50,17.2c0-8.9-9.2-15.6-20.4-15.6C17.5,1.6,8.2,7.8,8.2,17.2c0,9.7,7.6,15.7,20.4,15.7
		C42.9,32.9,50,27.1,50,17.2z"/>
</g>
<g style="enable-background:new    ;">
	<path d="M15.9,21.7l2.8-0.2c0.2,1.4,0.7,2.4,1.5,3.1c0.8,0.7,1.7,1,2.8,1c1.3,0,2.4-0.5,3.3-1.5c0.9-1,1.4-2.3,1.4-3.9
		c0-1.5-0.4-2.8-1.3-3.7c-0.9-0.9-2-1.3-3.4-1.3c-0.9,0-1.7,0.2-2.4,0.6c-0.7,0.4-1.3,0.9-1.7,1.5L16.4,17l2.1-11.3h11v2.6h-8.8
		l-1.2,5.9c1.3-0.9,2.7-1.4,4.2-1.4c1.9,0,3.6,0.7,4.9,2c1.3,1.3,2,3.1,2,5.2c0,2-0.6,3.7-1.7,5.2c-1.4,1.8-3.3,2.7-5.8,2.7
		c-2,0-3.6-0.6-4.9-1.7S16.1,23.5,15.9,21.7z"/>
</g>
<g>
	<path d="M32.4,5h1.5l-0.3,12c1.7-1.9,2.1-2.1,3.6-2.1c2.5,0,4.2,1.8,4.2,4.3c0,3.7-3.8,5.3-6.7,7.7l-2.3,1.9V5z M33.9,18.7
		c-0.2,2.4-0.3,4-0.3,4.7c0,1.2,0.1,2.2,0.3,2.9c3.2-2.5,4.7-4.9,4.7-6.9c0-1.6-1-3-2.5-3C35.1,16.4,34.5,17.7,33.9,18.7z"/>
</g>
</svg>
