<?xml version="1.0" encoding="iso-8859-1"?>
<!-- Generator: Adobe Illustrator 25.4.1, SVG Export Plug-In . SVG Version: 6.00 Build 0)  -->
<!DOCTYPE svg PUBLIC "-//W3C//DTD SVG 1.1//EN" "http://www.w3.org/Graphics/SVG/1.1/DTD/svg11.dtd" [
	<!ENTITY ns_extend "http://ns.adobe.com/Extensibility/1.0/">
	<!ENTITY ns_ai "http://ns.adobe.com/AdobeIllustrator/10.0/">
	<!ENTITY ns_graphs "http://ns.adobe.com/Graphs/1.0/">
	<!ENTITY ns_vars "http://ns.adobe.com/Variables/1.0/">
	<!ENTITY ns_imrep "http://ns.adobe.com/ImageReplacement/1.0/">
	<!ENTITY ns_sfw "http://ns.adobe.com/SaveForWeb/1.0/">
	<!ENTITY ns_custom "http://ns.adobe.com/GenericCustomNamespace/1.0/">
	<!ENTITY ns_adobe_xpath "http://ns.adobe.com/XPath/1.0/">
]>
<svg version="1.1" id="Layer_1" xmlns:x="&ns_extend;" xmlns:i="&ns_ai;" xmlns:graph="&ns_graphs;"
	 xmlns="http://www.w3.org/2000/svg" xmlns:xlink="http://www.w3.org/1999/xlink" x="0px" y="0px" width="57px" height="34.9px"
	 viewBox="0 0 57 34.9" style="enable-background:new 0 0 57 34.9;" xml:space="preserve">
<metadata>
	<sfw  xmlns="&ns_sfw;">
		<slices></slices>
		<sliceSourceBounds  bottomLeftOrigin="true" height="432.1" width="433.2" x="-54.5" y="-398.8"></sliceSourceBounds>
	</sfw>
</metadata>
<path style="fill:#FFFFFF;" d="M57.4,17.7c0,10.3-11.8,16.7-29.5,16.7c-15.8,0-28-6.5-28-16.7C0,7.7,14.4,1.1,29.3,1.1
	C43,1.1,57.4,8.2,57.4,17.7z"/>
<g>
	<path style="fill:#010202;" d="M57.4,17.6c0,10.4-11.8,16.7-29.5,16.7C12.2,34.3,0,28,0,17.6C0,7.7,14.4,1,29.3,1
		C43,1,57.4,8.2,57.4,17.6z M50,17.6C50,8.7,40.8,2,29.6,2C17.5,2,8.2,8.2,8.2,17.6c0,9.7,7.6,15.7,20.4,15.7
		C42.9,33.3,50,27.5,50,17.6z"/>
</g>
<g style="enable-background:new    ;">
	<path d="M35,10.8L32,11c-0.3-1.2-0.7-2.1-1.2-2.6C30,7.5,29,7.1,27.7,7.1c-1,0-1.8,0.3-2.6,0.8c-1,0.7-1.7,1.7-2.3,3.1
		S22,14.3,22,16.8c0.7-1.1,1.6-2,2.7-2.5c1.1-0.5,2.2-0.8,3.4-0.8c2.1,0,3.8,0.8,5.2,2.3c1.4,1.5,2.2,3.5,2.2,5.9c0,1.6-0.3,3-1,4.4
		c-0.7,1.4-1.6,2.4-2.8,3.1c-1.2,0.7-2.5,1.1-4,1.1c-2.6,0-4.7-0.9-6.3-2.8c-1.6-1.9-2.4-5-2.4-9.3c0-4.9,0.9-8.4,2.7-10.6
		c1.6-1.9,3.7-2.9,6.3-2.9c2,0,3.6,0.6,4.9,1.7C34,7.3,34.8,8.8,35,10.8z M22.5,21.6c0,1.1,0.2,2.1,0.7,3c0.5,1,1.1,1.7,1.9,2.2
		s1.7,0.8,2.6,0.8c1.3,0,2.4-0.5,3.4-1.6c0.9-1,1.4-2.5,1.4-4.3c0-1.7-0.5-3.1-1.4-4.1s-2.1-1.5-3.5-1.5c-1.4,0-2.6,0.5-3.5,1.5
		C22.9,18.7,22.5,20,22.5,21.6z"/>
</g>
</svg>
