<?xml version="1.0" encoding="iso-8859-1"?>
<!-- Generator: Adobe Illustrator 25.4.1, SVG Export Plug-In . SVG Version: 6.00 Build 0)  -->
<!DOCTYPE svg PUBLIC "-//W3C//DTD SVG 1.1//EN" "http://www.w3.org/Graphics/SVG/1.1/DTD/svg11.dtd" [
	<!ENTITY ns_extend "http://ns.adobe.com/Extensibility/1.0/">
	<!ENTITY ns_ai "http://ns.adobe.com/AdobeIllustrator/10.0/">
	<!ENTITY ns_graphs "http://ns.adobe.com/Graphs/1.0/">
	<!ENTITY ns_vars "http://ns.adobe.com/Variables/1.0/">
	<!ENTITY ns_imrep "http://ns.adobe.com/ImageReplacement/1.0/">
	<!ENTITY ns_sfw "http://ns.adobe.com/SaveForWeb/1.0/">
	<!ENTITY ns_custom "http://ns.adobe.com/GenericCustomNamespace/1.0/">
	<!ENTITY ns_adobe_xpath "http://ns.adobe.com/XPath/1.0/">
]>
<svg version="1.1" id="Layer_1" xmlns:x="&ns_extend;" xmlns:i="&ns_ai;" xmlns:graph="&ns_graphs;"
	 xmlns="http://www.w3.org/2000/svg" xmlns:xlink="http://www.w3.org/1999/xlink" x="0px" y="0px" width="57px" height="33.5px"
	 viewBox="0 0 57 33.5" style="enable-background:new 0 0 57 33.5;" xml:space="preserve">
<metadata>
	<sfw  xmlns="&ns_sfw;">
		<slices></slices>
		<sliceSourceBounds  bottomLeftOrigin="true" height="432.1" width="433.2" x="-54.5" y="-398.8"></sliceSourceBounds>
	</sfw>
</metadata>
<path style="fill:#FFFFFF;" d="M57.4,16.8c0,10.3-11.8,16.7-29.5,16.7c-15.8,0-28-6.5-28-16.7C0,6.8,14.4,0.2,29.3,0.2
	C43,0.2,57.4,7.3,57.4,16.8z"/>
<g>
	<path style="fill:#010202;" d="M57.4,16.7c0,10.4-11.8,16.7-29.5,16.7C12.2,33.4,0,27.1,0,16.7C0,6.8,14.4,0.1,29.3,0.1
		C43,0.1,57.4,7.3,57.4,16.7z M50,16.7c0-8.9-9.2-15.6-20.4-15.6C17.5,1.1,8.2,7.3,8.2,16.7c0,9.7,7.6,15.7,20.4,15.7
		C42.9,32.4,50,26.6,50,16.7z"/>
</g>
<g style="enable-background:new    ;">
	<path d="M15.9,21.2l2.7-0.4c0.3,1.5,0.8,2.6,1.6,3.3c0.7,0.7,1.7,1,2.7,1c1.3,0,2.4-0.4,3.2-1.3c0.9-0.9,1.3-2,1.3-3.3
		c0-1.2-0.4-2.3-1.2-3.1c-0.8-0.8-1.8-1.2-3.1-1.2c-0.5,0-1.2,0.1-1.9,0.3l0.3-2.4c0.2,0,0.3,0,0.4,0c1.2,0,2.2-0.3,3.1-0.9
		s1.4-1.5,1.4-2.8c0-1-0.3-1.8-1-2.5c-0.7-0.7-1.5-1-2.6-1c-1.1,0-1.9,0.3-2.6,1c-0.7,0.7-1.2,1.7-1.4,3l-2.7-0.5
		c0.3-1.8,1.1-3.2,2.3-4.2c1.2-1,2.6-1.5,4.4-1.5c1.2,0,2.3,0.3,3.3,0.8c1,0.5,1.8,1.2,2.3,2.1s0.8,1.8,0.8,2.8c0,1-0.3,1.8-0.8,2.6
		C28,14,27.3,14.6,26.3,15c1.3,0.3,2.3,0.9,3,1.9c0.7,0.9,1.1,2.1,1.1,3.6c0,1.9-0.7,3.6-2.1,4.9s-3.2,2-5.3,2
		c-1.9,0-3.5-0.6-4.8-1.7C16.8,24.5,16.1,23,15.9,21.2z"/>
</g>
<g>
	<path d="M39.6,0.9v5.7L42,5.9v3.7l-2.3,0.7v7l2.3-0.7v3.7L39.6,21v6.3h-1v-6.1l-3.9,1.3v6.1h-1v-5.8l-2.3,0.7v-3.7l2.3-0.7v-7
		l-2.3,0.7V9.2l2.3-0.7V2.1h1v6.1l3.9-1.3v-6H39.6z M38.6,10.7L34.8,12v7l3.9-1.3V10.7z"/>
</g>
</svg>
