<?xml version="1.0" encoding="iso-8859-1"?>
<!-- Generator: Adobe Illustrator 25.4.1, SVG Export Plug-In . SVG Version: 6.00 Build 0)  -->
<!DOCTYPE svg PUBLIC "-//W3C//DTD SVG 1.1//EN" "http://www.w3.org/Graphics/SVG/1.1/DTD/svg11.dtd" [
	<!ENTITY ns_extend "http://ns.adobe.com/Extensibility/1.0/">
	<!ENTITY ns_ai "http://ns.adobe.com/AdobeIllustrator/10.0/">
	<!ENTITY ns_graphs "http://ns.adobe.com/Graphs/1.0/">
	<!ENTITY ns_vars "http://ns.adobe.com/Variables/1.0/">
	<!ENTITY ns_imrep "http://ns.adobe.com/ImageReplacement/1.0/">
	<!ENTITY ns_sfw "http://ns.adobe.com/SaveForWeb/1.0/">
	<!ENTITY ns_custom "http://ns.adobe.com/GenericCustomNamespace/1.0/">
	<!ENTITY ns_adobe_xpath "http://ns.adobe.com/XPath/1.0/">
]>
<svg version="1.1" id="Layer_1" xmlns:x="&ns_extend;" xmlns:i="&ns_ai;" xmlns:graph="&ns_graphs;"
	 xmlns="http://www.w3.org/2000/svg" xmlns:xlink="http://www.w3.org/1999/xlink" x="0px" y="0px" width="57px" height="34.9px"
	 viewBox="0 0 57 34.9" style="enable-background:new 0 0 57 34.9;" xml:space="preserve">
<metadata>
	<sfw  xmlns="&ns_sfw;">
		<slices></slices>
		<sliceSourceBounds  bottomLeftOrigin="true" height="432.1" width="433.2" x="-54.5" y="-398.8"></sliceSourceBounds>
	</sfw>
</metadata>
<path style="fill:#FFFFFF;" d="M57.4,17.7c0,10.3-11.8,16.7-29.5,16.7c-15.8,0-28-6.5-28-16.7C0,7.7,14.4,1.1,29.3,1.1
	C43,1.1,57.4,8.2,57.4,17.7z"/>
<g>
	<path style="fill:#010202;" d="M57.4,17.6c0,10.4-11.8,16.7-29.5,16.7C12.2,34.3,0,28,0,17.6C0,7.7,14.4,1,29.3,1
		C43,1,57.4,8.2,57.4,17.6z M50,17.6C50,8.7,40.8,2,29.6,2C17.5,2,8.2,8.2,8.2,17.6c0,9.7,7.6,15.7,20.4,15.7
		C42.9,33.3,50,27.5,50,17.6z"/>
</g>
<g style="enable-background:new    ;">
	<path d="M28.9,29.7v-6H18v-2.8L29.5,4.6H32v16.3h3.4v2.8H32v6H28.9z M28.9,20.9V9.6l-7.9,11.3H28.9z"/>
</g>
</svg>
