<?xml version="1.0" encoding="iso-8859-1"?>
<!-- Generator: Adobe Illustrator 25.4.1, SVG Export Plug-In . SVG Version: 6.00 Build 0)  -->
<!DOCTYPE svg PUBLIC "-//W3C//DTD SVG 1.1//EN" "http://www.w3.org/Graphics/SVG/1.1/DTD/svg11.dtd" [
	<!ENTITY ns_extend "http://ns.adobe.com/Extensibility/1.0/">
	<!ENTITY ns_ai "http://ns.adobe.com/AdobeIllustrator/10.0/">
	<!ENTITY ns_graphs "http://ns.adobe.com/Graphs/1.0/">
	<!ENTITY ns_vars "http://ns.adobe.com/Variables/1.0/">
	<!ENTITY ns_imrep "http://ns.adobe.com/ImageReplacement/1.0/">
	<!ENTITY ns_sfw "http://ns.adobe.com/SaveForWeb/1.0/">
	<!ENTITY ns_custom "http://ns.adobe.com/GenericCustomNamespace/1.0/">
	<!ENTITY ns_adobe_xpath "http://ns.adobe.com/XPath/1.0/">
]>
<svg version="1.1" id="Layer_1" xmlns:x="&ns_extend;" xmlns:i="&ns_ai;" xmlns:graph="&ns_graphs;"
	 xmlns="http://www.w3.org/2000/svg" xmlns:xlink="http://www.w3.org/1999/xlink" x="0px" y="0px" width="57.4px" height="34.9px"
	 viewBox="0 0 57.4 34.9" style="enable-background:new 0 0 57.4 34.9;" xml:space="preserve">
<metadata>
	<sfw  xmlns="&ns_sfw;">
		<slices></slices>
		<sliceSourceBounds  bottomLeftOrigin="true" height="432.1" width="433.2" x="-54.5" y="-398.8"></sliceSourceBounds>
	</sfw>
</metadata>
<path style="fill:#FFFFFF;" d="M57.4,16.2c0,10.3-11.8,16.7-29.5,16.7c-15.8,0-28-6.5-28-16.7C0,6.2,14.4-0.4,29.3-0.4
	C43-0.4,57.4,6.7,57.4,16.2z"/>
<g>
	<path style="fill:#010202;" d="M57.4,16.1c0,10.4-11.8,16.7-29.5,16.7C12.2,32.8,0,26.5,0,16.1C0,6.2,14.4-0.5,29.3-0.5
		C43-0.5,57.4,6.7,57.4,16.1z M50,16.1c0-8.9-9.2-15.6-20.4-15.6C17.5,0.5,8.2,6.7,8.2,16.1c0,9.7,7.6,15.7,20.4,15.7
		C42.9,31.8,50,26,50,16.1z"/>
</g>
<g style="enable-background:new    ;">
	<path d="M16,20.5l2.7-0.4c0.3,1.5,0.8,2.6,1.6,3.3c0.7,0.7,1.7,1,2.7,1c1.3,0,2.4-0.4,3.2-1.3c0.9-0.9,1.3-2,1.3-3.3
		c0-1.2-0.4-2.3-1.2-3.1c-0.8-0.8-1.8-1.2-3.1-1.2c-0.5,0-1.2,0.1-1.9,0.3l0.3-2.4c0.2,0,0.3,0,0.4,0c1.2,0,2.2-0.3,3.1-0.9
		s1.4-1.5,1.4-2.8c0-1-0.3-1.8-1-2.5c-0.7-0.7-1.5-1-2.6-1c-1.1,0-1.9,0.3-2.6,1c-0.7,0.7-1.2,1.7-1.4,3l-2.7-0.5
		c0.3-1.8,1.1-3.2,2.3-4.2c1.2-1,2.6-1.5,4.4-1.5c1.2,0,2.3,0.3,3.3,0.8c1,0.5,1.8,1.2,2.3,2.1s0.8,1.8,0.8,2.8c0,1-0.3,1.8-0.8,2.6
		c-0.5,0.8-1.3,1.4-2.3,1.9c1.3,0.3,2.3,0.9,3,1.9c0.7,0.9,1.1,2.1,1.1,3.6c0,1.9-0.7,3.6-2.1,4.9s-3.2,2-5.3,2
		c-1.9,0-3.5-0.6-4.8-1.7C16.9,23.9,16.1,22.4,16,20.5z"/>
</g>
<g>
	<path d="M32.5,3.9h1.5l-0.3,12c1.7-1.9,2.1-2.1,3.6-2.1c2.5,0,4.2,1.8,4.2,4.3c0,3.7-3.8,5.3-6.7,7.7l-2.3,1.9V3.9z M33.9,17.6
		c-0.2,2.4-0.3,4-0.3,4.7c0,1.2,0.1,2.2,0.3,2.9c3.2-2.5,4.7-4.9,4.7-6.9c0-1.6-1-3-2.5-3C35.1,15.3,34.6,16.6,33.9,17.6z"/>
</g>
</svg>
