<?xml version="1.0" encoding="iso-8859-1"?>
<!-- Generator: Adobe Illustrator 25.4.1, SVG Export Plug-In . SVG Version: 6.00 Build 0)  -->
<!DOCTYPE svg PUBLIC "-//W3C//DTD SVG 1.1//EN" "http://www.w3.org/Graphics/SVG/1.1/DTD/svg11.dtd" [
	<!ENTITY ns_extend "http://ns.adobe.com/Extensibility/1.0/">
	<!ENTITY ns_ai "http://ns.adobe.com/AdobeIllustrator/10.0/">
	<!ENTITY ns_graphs "http://ns.adobe.com/Graphs/1.0/">
	<!ENTITY ns_vars "http://ns.adobe.com/Variables/1.0/">
	<!ENTITY ns_imrep "http://ns.adobe.com/ImageReplacement/1.0/">
	<!ENTITY ns_sfw "http://ns.adobe.com/SaveForWeb/1.0/">
	<!ENTITY ns_custom "http://ns.adobe.com/GenericCustomNamespace/1.0/">
	<!ENTITY ns_adobe_xpath "http://ns.adobe.com/XPath/1.0/">
]>
<svg version="1.1" id="Layer_1" xmlns:x="&ns_extend;" xmlns:i="&ns_ai;" xmlns:graph="&ns_graphs;"
	 xmlns="http://www.w3.org/2000/svg" xmlns:xlink="http://www.w3.org/1999/xlink" x="0px" y="0px" width="57px" height="33.5px"
	 viewBox="0 0 57 33.5" style="enable-background:new 0 0 57 33.5;" xml:space="preserve">
<metadata>
	<sfw  xmlns="&ns_sfw;">
		<slices></slices>
		<sliceSourceBounds  bottomLeftOrigin="true" height="432.1" width="433.2" x="-54.5" y="-398.8"></sliceSourceBounds>
	</sfw>
</metadata>
<path style="fill:#FFFFFF;" d="M57.4,16.8c0,10.3-11.8,16.7-29.5,16.7c-15.8,0-28-6.5-28-16.7C0,6.8,14.4,0.2,29.3,0.2
	C43,0.2,57.4,7.3,57.4,16.8z"/>
<g>
	<path style="fill:#010202;" d="M57.4,16.7c0,10.4-11.8,16.7-29.5,16.7C12.2,33.4,0,27.1,0,16.7C0,6.8,14.4,0.1,29.3,0.1
		C43,0.1,57.4,7.3,57.4,16.7z M50,16.7c0-8.9-9.2-15.6-20.4-15.6C17.5,1.1,8.2,7.3,8.2,16.7c0,9.7,7.6,15.7,20.4,15.7
		C42.9,32.4,50,26.6,50,16.7z"/>
</g>
<g style="enable-background:new    ;">
	<path d="M30,10.3l-2.7,0.2c-0.2-1.1-0.6-1.8-1-2.3c-0.7-0.8-1.6-1.2-2.7-1.2c-0.9,0-1.6,0.2-2.3,0.7c-0.9,0.6-1.5,1.5-2,2.7
		c-0.5,1.2-0.7,2.9-0.8,5.1c0.7-1,1.5-1.7,2.4-2.2c0.9-0.5,1.9-0.7,3-0.7c1.8,0,3.3,0.7,4.6,2c1.3,1.3,1.9,3,1.9,5.2
		c0,1.4-0.3,2.7-0.9,3.9c-0.6,1.2-1.4,2.1-2.5,2.7c-1,0.6-2.2,0.9-3.6,0.9c-2.3,0-4.1-0.8-5.5-2.5s-2.1-4.4-2.1-8.2
		c0-4.3,0.8-7.4,2.4-9.3c1.4-1.7,3.2-2.5,5.6-2.5c1.7,0,3.2,0.5,4.3,1.5C29.1,7.3,29.8,8.6,30,10.3z M18.9,19.9
		c0,0.9,0.2,1.8,0.6,2.7s1,1.5,1.7,2c0.7,0.4,1.5,0.7,2.2,0.7c1.1,0,2.1-0.5,3-1.4s1.2-2.2,1.2-3.8c0-1.5-0.4-2.7-1.2-3.6
		c-0.8-0.9-1.8-1.3-3.1-1.3c-1.2,0-2.3,0.4-3.1,1.3C19.3,17.3,18.9,18.4,18.9,19.9z"/>
</g>
<g>
	<path d="M39.6,0.9v5.7L42,5.9v3.7l-2.3,0.7v7l2.3-0.7v3.7L39.6,21v6.3h-1v-6.1l-3.9,1.3v6.1h-1v-5.8l-2.3,0.7v-3.7l2.3-0.7v-7
		l-2.3,0.7V9.2l2.3-0.7V2.1h1v6.1l3.9-1.3v-6H39.6z M38.6,10.7L34.8,12v7l3.9-1.3V10.7z"/>
</g>
</svg>
